<?xml version="1.0" encoding="UTF-8" standalone="no"?>
<svg
   version="1.1"
   width="120"
   height="120"
   id="svg20"
   sodipodi:docname="dummy.svg"
   inkscape:version="1.4.2 (f4327f4, 2025-05-13)"
   xmlns:inkscape="http://www.inkscape.org/namespaces/inkscape"
   xmlns:sodipodi="http://sodipodi.sourceforge.net/DTD/sodipodi-0.dtd"
   xmlns="http://www.w3.org/2000/svg"
   xmlns:svg="http://www.w3.org/2000/svg">
  <defs
     id="defs20" />
  <sodipodi:namedview
     id="namedview20"
     pagecolor="#ffffff"
     bordercolor="#000000"
     borderopacity="0.25"
     inkscape:showpageshadow="2"
     inkscape:pageopacity="0.0"
     inkscape:pagecheckerboard="0"
     inkscape:deskcolor="#d1d1d1"
     inkscape:zoom="2.2244401"
     inkscape:cx="21.353688"
     inkscape:cy="99.575619"
     inkscape:window-width="1920"
     inkscape:window-height="984"
     inkscape:window-x="1911"
     inkscape:window-y="-9"
     inkscape:window-maximized="1"
     inkscape:current-layer="svg20" />
  <rect
     style="opacity:0.996169;fill:#ffffff;fill-opacity:1;stroke-width:3.78156;stroke-linecap:square"
     id="rect1"
     width="120"
     height="120"
     x="0"
     y="0"
     ry="25.583256" />
  <path
     d="M 74,4 98.403589,37.697308 111.42656,77.879933 120,81 v 39 l -54.870391,0.0813 C 62.350207,113.70138 52.448629,114.26575 49.224511,115.70856 33.84694,111.75518 23.808772,109.77655 16.633288,98.755885 16.37323,98.356469 15.823542,97.897474 15.785032,97.41055 L 15.633363,71.036795 3.3386886,33.242357 55.022981,32.977019 59,14 71.348523,19.126833 Z"
     fill="#f4df8f"
     id="path1-9"
     style="display:inline;fill:#80e5ff;fill-opacity:1;stroke-width:0.989897"
     sodipodi:nodetypes="ccccccccccccccc" />
  <path
     d="m 0,0 c 11.769201,7.1763419 20.805274,19.390711 28,31 v 2 l 1.742187,0.667969 c 2.960389,1.746527 4.394778,3.851455 6.382813,6.644531 l 2.070312,2.863281 C 42.871161,50.49318 43.086934,57.81036 41.324219,66.226562 40.61102,68.842751 39.851323,71.425763 39,74 l 7,3 c 0.203731,3.895059 0.327771,7.788749 0.4375,11.6875 0.08798,1.654189 0.08798,1.654189 0.177734,3.341797 0.170015,8.039263 0.170015,8.039263 -2.204589,10.855953 C 42.472656,104.26953 42.472656,104.26953 39,106 38.724398,99.798952 39.771007,94.068155 41,88 L 38.625,90.375 34,95 h -4 c -0.08065,-3.548651 0.05686,-6.583898 1,-10 l -1.398438,1.101562 C 21.944167,92.003508 14.633627,97.215995 5,99 V 97 C 6.6408787,95.709255 8.3401855,94.49239 10.0625,93.3125 18.147204,87.723792 18.147204,87.723792 24,80 L 14,79 v -2 c 0.915234,-0.09797 1.830469,-0.195938 2.773437,-0.296875 L 20.375,76.25 23.960937,75.828125 27,75 29,71 H 13 c 2.996843,-2.996843 4.556778,-3.813187 8.4375,-5.1875 l 2.871094,-1.042969 C 27,64 27,64 31,64 30.715015,57.04636 29.476313,52.008118 26,46 L 25.074219,43.996094 C 22.037941,38.354138 16.830149,34.417379 11,32 v -2 h 2 V 28 H 9 c 0,-2 0,-2 2,-4 L 7,22 v -2 h 3 C 7.1204024,15.422515 7.1204024,15.422515 3,12 L 0,23 C -3.3954043,21.868199 -4.1535785,20.896428 -6.375,18.1875 -8.9923716,15.002434 -11.758773,12.544114 -15,10 c -0.03758,1.179734 -0.03758,1.179734 -0.07593,2.383301 -0.116401,3.580714 -0.238927,7.161193 -0.361572,10.741699 -0.03932,1.2375 -0.07863,2.475 -0.119141,3.75 -0.06284,1.798242 -0.06284,1.798242 -0.126953,3.632812 -0.03666,1.099732 -0.07332,2.199463 -0.111084,3.33252 C -15.996835,36.951291 -16.432899,39.936443 -17,43 h -2 l -2,-12 h -3 v 10 h -3 l -1,-7 h -3 v 10 l -3,1 c -0.504038,-1.290096 -1.003099,-2.582138 -1.5,-3.875 l -0.84375,-2.179688 C -37,37 -37,37 -37,35 -51.4492,32.612138 -51.4492,32.612138 -66,31 l 2,7 h 5 l 1,3 h -4 c 2.257406,2.335248 4.280576,4.187051 7,6 l -3,1 1.5625,1 c 1.4375,2 1.4375,2 1.125,5.1875 l -0.355469,2.097656 c -0.441951,3.613598 -0.458275,7.205318 -0.457031,10.839844 -0.0043,0.680867 -0.0085,1.361733 -0.01294,2.063232 C -56.12759,73.238657 -55.718896,77.021379 -55,81 c 0.154102,1.725433 0.261493,3.45595 0.3125,5.1875 0.03738,0.83918 0.07477,1.678359 0.113281,2.542969 C -55,91 -55,91 -59,94 V 83 h -6 l 1.960938,-2.070557 C -59.376119,75.667032 -60.031143,69.144352 -61,63 c -1.380131,-5.258279 -3.70781,-10.151854 -6,-15.0625 -0.865454,-1.902014 -1.722484,-3.807105 -2.567871,-5.718124 -0.760506,-1.712074 -1.544791,-3.413527 -2.330566,-5.114151 C -73.066995,33.811145 -73.367709,31.466212 -73,28 c 2,-2 2,-2 3.932617,-2.24292 0.780205,0.0041 1.56041,0.0082 2.364258,0.01245 0.870037,0.0014 1.740073,0.0027 2.636475,0.0042 0.929494,0.01281 1.858989,0.02562 2.81665,0.03882 0.945608,0.0057 1.891216,0.01144 2.865479,0.01733 6.528609,0.06713 12.976545,0.396875 19.474365,1.049072 C -35.795864,27.008494 -33.048781,26.613391 -30,26 l 1,2 h 6 c -0.05221,-1.359316 -0.05221,-1.359316 -0.105469,-2.746094 C -23.289504,16.972334 -22.711249,10.422498 -19,3 c 4.762646,0.4788767 7.226417,2.4948864 10.8125,5.5625 L -5.2304687,11.066406 -3,13 -2.625,9.3125 C -2.2110869,5.9352094 -1.4542655,3.1024331 0,0 Z"
     fill="#1c1c1b"
     transform="translate(74,4)"
     id="path3"
     style="display:inline"
     sodipodi:nodetypes="ccccccccccccccccccccccccccccccccccccccccccccccccccccccccccccccccccccccccccccccccccccccccccccccccccccccccccc" />
  <path
     d="m 0,0 c -1,3 -1,3 -4,5 1.0231774,2.796361 1.8088554,3.8788283 4.35888672,5.495361 C 8.3459247,13.950056 14.538703,14.316457 23.125,13.6875 35.633492,13.165651 35.633492,13.165651 39.90625,16.171875 46,22.37069 46,22.37069 46,25 c -3.364045,0.231118 -6.643147,0.365913 -10,0 -2.3125,-2.0625 -2.3125,-2.0625 -4,-4 -1.67528,0.286926 -3.340431,0.632958 -5,1 C 15.544968,22.633683 5.3261298,22.501452 -4,15 -9.1675628,9.9974691 -9.1675628,9.9974691 -11,7 -10.867188,4.859375 -10.867188,4.859375 -10,3 -6.3211537,0.71094011 -4.3844804,0 0,0 Z"
     fill="#1e1e1d"
     transform="translate(27,95)"
     id="path4"
     style="display:inline"
     sodipodi:nodetypes="ccccccccccccc" />
  <path
     d="m 0,0 c 0.7425,0.0825 1.485,0.165 2.25,0.25 0.33,1.32 0.66,2.64 1,4 -5.5447539,5.1182344 -11.1753188,8.490043 -18.75,9.5 -3.822252,-0.588039 -5.504595,-1.837789 -8.25,-4.5 0.33,-0.99 0.66,-1.98 1,-3 0.99,0.33 1.98,0.66 3,1 5.265276,0.3973793 8.506815,-0.2042407 13,-3 C -6.069375,3.528125 -5.38875,2.80625 -4.6875,2.0625 -2.75,0.25 -2.75,0.25 0,0 Z"
     fill="#22221e"
     transform="translate(80.75,62.75)"
     id="path5"
     style="display:inline" />
  <path
     d="M 0,0 C -0.57584432,2.3856408 -1.2222759,4.6668278 -2,7 2.8392082,7.2791851 5.3408067,7.2526163 9,4 9.66,4 10.32,4 11,4 10.709267,6.8104211 10.184369,7.8334728 8.0625,9.75 4.3046389,11.283821 1.4058303,11.108598 -2.5976563,10.8125 -5.5771307,11.045044 -6.7185043,12.148975 -9,14 c -2.75,0.1875 -2.75,0.1875 -5,0 -0.33,-1.32 -0.66,-2.64 -1,-4 0.928125,0.0825 1.85625,0.165 2.8125,0.25 C -8.9089478,10.35303 -8.9089478,10.35303 -7.125,8 -6.75375,7.34 -6.3825,6.68 -6,6 -7.65,5.67 -9.3,5.34 -11,5 c 0.375,-1.9375 0.375,-1.9375 1,-4 3.2145127,-1.60725635 6.4361254,-1.05748185 10,-1 z"
     fill="#262521"
     transform="translate(58,84)"
     id="path7"
     style="display:inline" />
  <path
     d="M 0,0 C 0.66,0.33 1.32,0.66 2,1 1.8629736,3.9460683 1.7012444,6.2015952 -0.296875,8.4765625 -4.2799366,11.848362 -7.3602757,13.144669 -12.5,13.1875 c -1.160156,0.02127 -1.160156,0.02127 -2.34375,0.04297 C -17,13 -17,13 -20,11 c 0,-0.99 0,-1.98 0,-3 1.446328,-0.056074 1.446328,-0.056074 2.921875,-0.1132813 C -15.814844,7.8209766 -14.551562,7.7552344 -13.25,7.6875 -11.997031,7.6294922 -10.744063,7.5714844 -9.453125,7.5117187 -5.9335778,6.9901569 -4.5005278,6.4524407 -2,4 -0.7483533,1.9166536 -0.7483533,1.9166536 0,0 Z"
     fill="#3b382b"
     transform="translate(42,72)"
     id="path8"
     style="display:inline" />
</svg>
