<svg version="1.1" width="120" height="120" id="svg20" xmlns="http://www.w3.org/2000/svg" xmlns:svg="http://www.w3.org/2000/svg"><defs id="defs20" /><rect style="opacity:1;fill:#fff;fill-opacity:1;stroke-width:3.8;stroke-linecap:square" id="rect1" width="120" height="120" x="0" y="0" ry="25.6" /><g id="layer2"><path d="M 74,4 98.4,37.7 111.4,77.9 120,81 v 39 l -54.9,0.1 C 62.4,113.7 52.4,114.3 49.2,115.7 33.8,111.8 23.8,109.8 16.6,98.8 16.4,98.4 15.8,97.9 15.8,97.4 L 15.6,71 3.3,33.2 55,33 59,14 71.3,19.1 Z" fill="#f4df8f" id="path1-9" style="display:inline;fill:#f4df8f;fill-opacity:1;stroke-width:1" /><path d="m 0,0 c 11.8,7.2 20.8,19.4 28,31 v 2 c 17.8,11.1 12.4,36.7 11,41 l 7,3 c 0.3,6 0.3,8.8 0.6,15 0.2,8 0.2,8 -2.2,10.9 C 42.5,104.3 42.5,104.3 39,106 38.7,99.8 39.8,94.1 41,88 l -7,7 H 30 C 29.9,91.5 30.1,88.4 31,85 19.5,94 13,97.5 5,99 V 97 C 13.5,92.8 19.2,87.2 24,80 L 14,79 v -2 c 4.4,-0.4 8.7,-0.9 13,-2 l 2,-4 H 13 C 13.1,70.9 19.1,64 31,64 31.8,50.5 24.1,37.5 11,32 v -2 h 2 V 28 H 9 c 0,-2 0,-2 2,-4 L 7,22 v -2 h 3 C 7.1,15.4 7.1,15.4 3,12 L 0,23 C -3.4,21.9 -4.2,20.9 -6.4,18.2 -9,15 -11.8,12.5 -15,10 c -0.4,11 -0.3,22.1 -2,33 h -2 l -2,-12 h -3 v 10 h -3 l -1,-7 h -3 v 10 l -3,1 c -1.3,-3.3 -2.8,-6.4 -3,-10 -14.4,-2.4 -14.4,-2.4 -29,-4 l 2,7 h 5 l 1,3 h -4 c 2.3,2.3 4.3,4.2 7,6 l -3,1 c 2.9,1.8 3.1,2.5 2.7,6.2 -1.4,8.5 -1.8,23.5 0.7,34.5 C -55,91 -55,91 -59,94 V 83 h -6 l 2,-2.1 C -59.4,75.7 -60,69.1 -61,63 -67,43.8 -74.1,38.5 -73,28 c 2,-2 2,-2 3.9,-2.2 10.1,-0.1 20.1,0.2 30.2,1.1 C -35.8,27 -33,26.6 -30,26 l 1,2 h 6 c -0.1,-1.4 -0.1,-1.4 -0.1,-2.7 C -23.3,17 -22.7,10.4 -19,3 -12.4,3.7 -7.8,8.9 -3,13 -2.7,8.5 -1.9,4.1 0,0 Z" fill="#1c1c1b" transform="translate(74,4)" id="path3" style="display:inline" /><path d="m 0,0 c -1,3 -1,3 -4,5 1,2.8 1.8,3.9 4.4,5.5 C 8.3,14 14.5,14.3 23.1,13.7 35.6,13.2 35.6,13.2 39.9,16.2 46,22.4 46,22.4 46,25 42.6,25.2 39.4,25.4 36,25 33.7,22.9 33.7,22.9 32,21 16.3,24.3 -2,21.6 -11,7 -10.9,4.9 -10.9,4.9 -10,3 -6.3,0.7 -4.4,0 0,0 Z" fill="#1e1e1d" transform="translate(27,95)" id="path4" style="display:inline" /><path d="M 1.4,0.2 C 3.1,1.4 2.3,3 2,4.4 -3.3,9.8 -8.4,12.4 -15.4,13 -18.2,12.7 -20.9,11.5 -23.4,9.1 -23.9,7.6 -23.5,7 -22.8,6.2 c 1.2,-0.5 2.4,0.3 3.7,0.8 5.3,2.4 11.7,-1.2 15.1,-5.4 2.4,-2.1 2.2,-1.9 5.4,-1.5 z" fill="#22221e" transform="translate(80.8,62.8)" id="path5" style="display:inline" /><path d="M 0,0 C -0.6,2.4 -1.2,4.7 -2,7 2.8,7.3 5.3,7.3 9,4 h 2 C 10.7,6.8 10.2,7.8 8.1,9.8 4.3,11.3 1.4,11.1 -2.6,10.8 -5.6,11 -6.7,12.1 -9,14 c -2.8,0.2 -2.8,0.2 -5,0 l -1,-4 c 4.3,1.4 6.8,0.8 9,-4 l -5,-1 c 0.4,-1.9 0.4,-1.9 1,-4 3.2,-1.6 6.4,-1.1 10,-1 z" fill="#262521" transform="translate(58,84)" id="path7" style="display:inline" /><path d="M 0,0 2,1 C 1.3,15 -14.5,14.7 -20,11 l 0.2,-3.7 C -12,7.5 -3.4,9.8 0,0 Z" fill="#3b382b" transform="translate(42,72)" id="path8" style="display:inline" /></g></svg>