<?xml version="1.0" encoding="UTF-8" standalone="no"?>
<svg
   version="1.1"
   width="518"
   height="495"
   id="svg557"
   sodipodi:docname="mascot.svg"
   inkscape:version="1.4.2 (f4327f4, 2025-05-13)"
   inkscape:export-filename="mascot.png"
   inkscape:export-xdpi="96"
   inkscape:export-ydpi="96"
   xmlns:inkscape="http://www.inkscape.org/namespaces/inkscape"
   xmlns:sodipodi="http://sodipodi.sourceforge.net/DTD/sodipodi-0.dtd"
   xmlns="http://www.w3.org/2000/svg"
   xmlns:svg="http://www.w3.org/2000/svg">
  <defs
     id="defs557" />
  <sodipodi:namedview
     id="namedview557"
     pagecolor="#ffffff"
     bordercolor="#000000"
     borderopacity="0.25"
     inkscape:showpageshadow="2"
     inkscape:pageopacity="0.0"
     inkscape:pagecheckerboard="0"
     inkscape:deskcolor="#d1d1d1"
     inkscape:zoom="0.2696291"
     inkscape:cx="1029.1916"
     inkscape:cy="487.70701"
     inkscape:window-width="1920"
     inkscape:window-height="984"
     inkscape:window-x="1911"
     inkscape:window-y="-9"
     inkscape:window-maximized="1"
     inkscape:current-layer="layer4" />
  <path
     d="m 424.37678,32.341144 c 0,0 25.89634,6.31749 42.3515,27.575008 14.17326,19.034429 15.44425,36.477514 15.49795,56.229678 l -3.44,296.99248 c -0.93077,3.60942 -9.18785,31.91466 -42.71563,47.48809 -6.14146,2.4893 -44.28958,7.26998 -44.28958,7.26998 L 122.62854,467.42401 C 62.509602,464.12188 49.080978,412.74841 46.471802,398.14807 v -4.65401 L 46.243604,96.568231 C 46.209489,52.177876 73.381398,34.493632 111.62795,32.081108 Z"
     fill="#feede4"
     id="path1"
     style="display:inline;stroke-width:0.930802"
     inkscape:label="背景"
     sodipodi:nodetypes="cccccccccccc" />
  <path
     d="m 48.1875,46.9375 c 36.414874,3.530768 73.4427,18.490556 102.87694,41.179839 2.66993,3.079373 65.41284,-35.009824 84.85597,-15.435208 13.07032,17.255875 -2.84187,80.558459 -26.95557,97.849119 -2.9248,3.95973 -2.05652,8.20268 -1.83984,12.96875 2.76877,14.35347 -20.70944,59.3011 -28.31167,68.93088 0.44166,3.26827 -159.486803,-40.75744 -246.881212,-66.43468 1.086017,-7.70155 13.807379,-69.65999 20.927222,-87.851649 C -23.605859,30.712977 -33.252998,-49.937487 48.1875,46.9375 Z"
     fill="#fecb65"
     id="path2"
     sodipodi:nodetypes="ccccccccc"
     style="display:inline"
     inkscape:label="額模様"
     transform="translate(184.8125,42.0625)" />
  <path
     d="m 0,0 c 8.7938963,6.513073 15.825436,13.400221 18.111328,24.543945 1.34149,11.123187 -0.358577,21.514573 -2.71875,32.332032 12.763248,-0.0064 25.684361,-0.925525 38,2.999997 8.314764,-12.324879 18.452037,-22.605769 33.007813,-27.703122 12.451455,-1.855511 23.506239,0.484614 33.789059,7.734375 10.75125,9.607494 15.91479,21.446657 16.82813,35.53125 -0.16016,9.855059 -4.52943,18.779127 -10.98438,26.121093 -7.29572,9.0795 -17.48017,7.31641 -27.640622,7.31641 v 2 c 8.936542,2.40215 18.649302,2.85183 27.000002,7 0,0 7.69639,3.91903 12,6 -3.75516,9.34569 -150.770864,82.66289 -159.403974,86.87417 -22.86896,6.41673 -41.1663,-84.56374 -12.596028,-87.87416 -3.082971,-1.52434 -48.449474,-24.5034 -52.476999,-58.695403 22.958561,-2.388738 45.486209,7.695401 48.476999,7.695401 -15.333173,-9.302134 -32.201373,-25.643633 -20.4375,-49.125 6.61751,-12.542525 14.692358,-22.02377393 28.4375,-26.8750004 C -20.057119,-6.6712711 -9.0414646,-6.3224336 0,0 Z"
     fill="#fef3d9"
     id="path3"
     style="display:inline"
     inkscape:label="顔の白模様"
     sodipodi:nodetypes="ccccccccccccccccccc"
     transform="translate(211.60742,171.12402)" />
  <path
     d="M 0,0 C 20.32002,-0.62350829 35.826312,5.9292137 54.027018,-2.9696744 61.564536,-4.5219998 93.43964,34.630666 86.986601,18.364002 83.995927,2.5207102 115.36085,13.803269 121.58984,23.449217 c 7.95343,8.746564 10.16121,21.867303 9.82422,33.355468 C 129.19909,73.897573 120.64457,91.394338 107.25,102.37891 79.500177,122.37226 45.872574,112.51743 17.086426,119.31685 11.754026,120.49709 6.4059539,120.83645 1,120 -1.9150359,118.42625 -3.5256759,115.7002 -5.3125,113.0625 -6.5718268,109.28452 -19.014543,105.30085 -29,114 c -5.684236,4.27361 -10.784218,7.12659 -18,7 -7.228462,-5.78651 -5.93121,-4.76341 -16.6875,-2.5625 -2.807302,-0.53111 -3.5237,-1.25339 -5.3125,-3.4375 -7.039921,-21.63669 -5.799619,-13.05248 -16,-4 -4.398725,1.79207 -9.881641,1.48885 -14.4375,0.4375 -2.64401,-2.43249 -2.39406,-4.95291 -2.5625,-8.4375 13.271109,-25.584741 4.908595,-52.316228 -1.8544,-78.9569 6.845397,3.086279 12.012836,8.132366 15.6669,14.3944 3.436003,5.693759 7.229666,11.289435 13.1875,14.5625 3.853539,-0.299469 5.436296,-1.192134 8,-4 h 2 l 1,-7 c 2.906003,-1.25665 4.796046,-2 8,-2 0.06126,-5.025847 -0.781545,-10.185539 1,-15 h 2 l 2,3 c 2.428382,-0.629581 4.056709,-1.038805 9,-2 C -39.542818,6.9463946 -18.364273,-4.3123258 0,0 Z"
     fill="#fdcc64"
     transform="translate(275,325)"
     id="path5"
     style="display:inline"
     inkscape:label="体の模様"
     sodipodi:nodetypes="cccccccccccccccccccccccccccc" />
  <g
     inkscape:groupmode="layer"
     id="layer4"
     inkscape:label="前足">
    <path
       d="m 278.80583,426.11537 c 12.40004,-0.0824 16.19589,11.17175 15.84009,17.67511 -4.27941,1.67703 -8.75771,2.37934 -13.31106,2.36663 -0.58111,-0.002 -1.16219,-0.005 -1.74328,-0.009 -0.0738,-2.41155 -6.36462,-0.3113 -7.68588,-0.6915 -0.98117,-0.20828 -1.86487,-0.50266 -2.65265,-1.12228 0.96557,-8.54332 -2.473,-12.22629 -3.62756,-2.17653 -1.24228,-1.17057 -1.67408,-2.41566 -1.74097,-4.1023 -0.0293,-3.06139 1.0312,-5.47505 3.13532,-7.72121 3.9,-3.8313 11.78599,-4.21892 11.78599,-4.21892 z"
       fill="#fcf1cf"
       id="path18"
       sodipodi:nodetypes="cccccccccc"
       style="stroke-width:0.181378"
       inkscape:label="後ろ足" />
    <path
       d="m 170.36717,428.21384 c 1.02876,-3.21407 2.39631,-6.18337 4.37992,-8.9302 l 1.90336,0.6142 0.6142,-1.90335 c 3.94387,1.95072 7.56866,4.13643 11.19147,6.63244 l 2.91836,1.98431 c 2.29888,1.86495 3.32248,3.03386 4.37022,5.75293 -3.21453,3.27687 -8.52421,3.66073 -12.92526,4.23528 -4.51019,-0.25354 -8.39211,-0.62649 -11.60824,-3.97992 -1.10102,-2.22288 -1.10102,-2.22288 -0.84403,-4.40569 z"
       fill="#fdf2d4"
       id="path25"
       inkscape:label="前足の白"
       sodipodi:nodetypes="cccccccccc" />
    <path
       d="m 0,0 c 5.4591031,3.6539364 10.839805,8.617111 13.8125,14.5625 0.134155,2.672362 0.04318,5.322505 0,8 l 2,1 c -6.92574,16.253985 -30.663996,28.470725 -46,7 -2.408515,-7.052479 -0.006,-12.597912 3,-19 l 1.171875,-2.9726562 C -23.049726,1.2810219 -23.049726,1.2810219 -19.5625,-1.625 -12.48275,-3.3293843 -6.5134014,-3.6129808 0,0 Z"
       fill="#fdf1d2"
       transform="translate(236.1875,409.4375)"
       id="path12"
       style="display:inline"
       inkscape:label="前足の白"
       sodipodi:nodetypes="ccccccccc" />
  </g>
  <g
     inkscape:groupmode="layer"
     id="layer3"
     inkscape:label="耳">
    <path
       d="m 0,0 c 6.625,0.75 6.625,0.75 10,3 6.05107,24.053007 -20.901881,74.011618 -33,79 -4.407857,-55.522332 10.109845,-42.540009 -34,-42 l -1,2 c -1,-1 -1,-1 -1.4375,-3.5625 0.940104,-7.386528 7.26517,-12.752684 12.742188,-17.371094 C -34.248571,11.523905 -16.086798,1.3370924 0,2 Z"
       fill="#fdf3da"
       transform="translate(402,126)"
       id="path9"
       style="display:inline"
       sodipodi:nodetypes="ccccccccc" />
    <path
       d="m 0,0 c 9.1673139,1.273238 14.116531,6.1719374 20,13 8.250835,11.577785 19.232421,28.210953 18,43 -1,1 -9.195364,3.786424 -11.757864,3.848924 C 18.380756,59.194622 9.8040346,53.034084 5.4177121,53.656082 -2.7480987,54.814026 -3.2616559,65.333141 -6,79 c -3,2 -3,2 -5.1875,1.625 L -13,80 C -13.373365,78.63161 -18.053721,53.119338 -12,29 -9.3508939,18.633969 -7.7371343,7.8113138 0,0 Z"
       fill="#fdf3da"
       transform="translate(172,56)"
       id="path10"
       style="display:inline"
       inkscape:label="→耳の白"
       sodipodi:nodetypes="cccccccccc" />
    <path
       d="m 0,0 c -0.09201365,20.887099 -11.966655,44.847617 -26,60 h -2 c -4.738442,-6.120487 -7.687641,-12.160895 -7,-20 0.953646,-2.022513 1.948165,-4.026768 3,-6 -2.643881,0.09986 -3.703703,0.137307 -9.25,0.250003 -4.504112,0.327765 -8.640823,0.584881 -12.359375,-2.265625 L -55,30 C -51.193569,20.480626 -38.230196,15.77278 -29.439209,11.634766 -19.750093,7.8123162 -10.706039,0.06665684 0,0 Z"
       fill="#fa9680"
       transform="translate(401,138)"
       id="path11"
       inkscape:label="右耳の白"
       sodipodi:nodetypes="cccccccccc" />
    <path
       d="m 0,0 h 2 c 7.3872414,7.3872414 24,25.400665 24,38 h 5 l 1,3 c -2.625,2.125 -2.625,2.125 -6,4 -5.047619,-1.047619 -5.047619,-1.047619 -7,-3 -6.555012,-0.273103 -12.8619871,-1.698663 -19,-4 1.2364992,6.182496 1.4434403,8.746604 -1,13 -3.1827906,2.298974 -6.5200069,4.189376 -10,6 C -11.562218,36.148908 -9.6444296,18.896353 0,0 Z"
       fill="#fa9680"
       transform="translate(178,75)"
       id="path13"
       inkscape:label="右耳のオレンジ"
       sodipodi:nodetypes="ccccccccccc" />
  </g>
  <path
     d="m 0,0 c 1.875,0.625 1.875,0.625 4,2 0.6793917,1.9957132 1.3456156,3.9959477 2,6 2.3835012,2.648335 3.7550527,2.967648 7.3125,3.4375 C 17.918062,10.891077 20.183675,9.5951012 24,7 c 0.33,-0.66 0.66,-1.32 1,-2 1.32,0 2.64,0 4,0 0.587812,1.85625 0.587812,1.85625 1.1875,3.75 1.747708,4.702166 4.330986,7.009243 8.8125,9.25 4.937197,0.448836 7.670776,-0.741274 12,-3 1.32,0 2.64,0 4,0 -0.264825,3.884106 -0.53394,5.546205 -3.375,8.3125 C 46.648812,26.511478 41.762265,26.757521 36,26 31.665286,24.273279 28.711504,22.334071 26.5,18.1875 26.2525,17.104687 26.2525,17.104687 26,16 25.071875,16.495 24.14375,16.99 23.1875,17.5 18.187283,19.591 13.326833,19.931264 8,19 3.0874717,16.751154 -1.0169378,14.188011 -3,9 -3.3125,5.375 -3.3125,5.375 -3,2 -2.01,1.34 -1.02,0.68 0,0 Z"
     fill="#25190b"
     transform="translate(203,263)"
     id="path20"
     inkscape:label="口"
     style="display:inline" />
  <g
     inkscape:groupmode="layer"
     id="layer5"
     inkscape:label="体の模様">
    <g
       inkscape:groupmode="layer"
       id="layer6"
       inkscape:label="額模様">
      <path
         d="M 1.147351,-4.4254968 C 7.6024713,-4.9868116 11.728073,-1.5849691 17.573676,1.0496688 13.483411,20.904515 0.96438045,43.183379 -7.9853516,61.327148 -9,63 -9,63 -11,64 c -3.526087,0.38327 -5.386098,0.377786 -8.4375,-1.5 -2.655502,-4.248803 -0.838289,-9.219342 0.171875,-13.910156 4.596681,-16.530372 12.5347759,-37.767287 20.412976,-53.0153408 z"
         fill="#df953c"
         transform="translate(280,112)"
         id="path14"
         inkscape:label="額の模様　中央"
         sodipodi:nodetypes="ccccccc" />
      <path
         d="M 0,-2.2127484 C 0.6875,-0.65024838 0.6875,1.5625 1,4 -9.8811172,31.643919 -0.16833538,9.0064333 -12.145264,40.904785 -15.527045,49.725005 -15.527045,49.725005 -18,53 c -4.086005,0.595876 -5.526489,0.315674 -9,-2 -0.858852,-12.166549 -0.848579,-25.267397 2.295898,-38.400146 2.060135,-7.6069194 1.127648,-12.41661211 3.195824,-14.4847878 C -14.118575,-3.3338952 -7.4565282,-2.8934708 0,-2.2127484 Z"
         fill="#de963d"
         transform="translate(260,105)"
         id="path15"
         inkscape:label="額の模様"
         sodipodi:nodetypes="cccccccc" />
      <path
         d="M 2.0488411,-3.3600994 C 9.0499913,-2.3218178 12.611401,2.1929379 17.553911,6.7458347 18.819536,8.1481787 18,12 18,14 16.359121,15.290745 14.659814,16.50761 12.9375,17.6875 2.4317952,24.318404 -3.5661023,35.185637 -11.191406,44.566406 -13,46 -13,46 -15.589844,46.339844 -18,46 -18,46 -20,44 c -0.735757,-8.553171 2.556372,-15.892161 7,-23 3.8083387,-3.869708 6.4592659,-8.428775 8.75,-13.3125 3.1616928,-6.5991928 5.2105339,-9.9592922 6.2988411,-11.0475994 z"
         fill="#df963e"
         transform="translate(313,126)"
         id="path17"
         inkscape:label="額の模様"
         sodipodi:nodetypes="cccccccccc" />
    </g>
    <g
       inkscape:groupmode="layer"
       id="layer8"
       inkscape:label="背中、尻尾模様">
      <path
         d="M -8.3447967,-0.69539973 C 1.9044423,-1.7318396 26.600961,0.78774696 36.258598,4.0728004 38.275541,6.0897436 36.52485,21.342948 34.867798,23 28.834234,23.383083 19.412824,22.696722 13.707031,20.800781 8.9013847,19.379197 3.9511784,18.72311 -1,18 -1.3790401,-6.8060661 -8.3447967,14.894487 -8.3447967,-0.69539973 Z"
         fill="#e19940"
         transform="translate(373,365)"
         id="path19"
         inkscape:label="尻尾模様"
         sodipodi:nodetypes="cccccc" />
      <path
         d="m 6.2585975,-6.0267976 c 2.1019102,0.908686 5.3819765,5.76495841 6.8752615,7.482236 C 5.5037398,5.8444109 -2.5922632,9.064758 -8.2109375,15.773438 -12.526532,20.473444 -15.864911,26.493812 -22.710937,27.023437 l -3.5,-0.25 c -3.194362,-5.06223 -2.135785,-11.289521 -2,-16.9999995 3.238536,-1.3961181 6.140961,-2.2606033 9.625,-2.75 C -8.1034749,5.1246679 2.2103761,-6.441633 6.2585975,-6.0267976 Z"
         fill="#e0973e"
         transform="translate(329.21094,329.22656)"
         id="path21"
         inkscape:label="背中の縞模様"
         sodipodi:nodetypes="cccccccc" />
      <path
         d="M 2.7815989,-3.0133988 C 7.002223,-1.2466259 6.3352207,5.2988242 8.6875,9.125 l 1,3 h -2 l -1,2 h -2 C -2.8123493,17.971387 -9.3240967,25.707026 -18.25,24.8125 l -2.0625,-0.6875 c 0.08105,-8.865331 8.141687,-14.017583 13.421875,-20.3007812 2.1202135,-2.2829032 6.49772821,-6.6660233 9.6722239,-6.8376176 z"
         fill="#e0983e"
         transform="translate(344.3125,342.875)"
         id="path24"
         inkscape:label="背中の縞模様"
         sodipodi:nodetypes="cccccccccc" />
    </g>
    <g
       inkscape:groupmode="layer"
       id="layer7"
       inkscape:label="頬模様">
      <path
         d="M 0,0 H 7 L 4,2 c 1.3457372,3.1892904 1.4865048,7.6222718 5,9 2.707748,0.103176 4.259114,0.09432 16.708984,-0.03907 C 32.23833,10.918146 38.529337,11.108455 45,12 l 1,5 c -0.761433,0.06993 -1.522866,0.139863 -2.307373,0.211914 C 33.912377,18.544283 22.941244,17.177387 15,24 14.581294,26.669281 14.581294,26.669281 15,29 9.2242991,27.074767 0.03662754,9.9403993 0,0 Z"
         fill="#fdc960"
         transform="translate(128,236)"
         id="path23"
         style="display:inline"
         inkscape:label="頬の縞模様"
         sodipodi:nodetypes="ccccccccccc" />
      <path
         d="M 0,0 C 9.9280447,-1.5144475 16.802731,2.3035275 25.189453,6.9912109 26.762505,7.867674 28.356236,8.7068214 29.953125,9.5390625 35.711093,12.566639 35.711093,12.566639 38,16 l -9,5 C 21.184998,14.473372 14.954753,10.247256 8,6 5.314509,4.3581595 2.6497016,2.6998086 0,1 Z"
         fill="#fdcc64"
         transform="translate(301,290)"
         id="path26"
         inkscape:label="頬の縞模様"
         sodipodi:nodetypes="cccccccc" />
    </g>
  </g>
  <path
     d="m 0,0 c 33.473527,15.077786 42.837491,42.379293 48.1875,46.9375 17.248029,-0.22321 81.34958,5.292393 99,33 26.77743,-12.602731 78.30702,-17.624367 88.73291,-7.255369 6.50568,8.58902 5.25394,20.989457 3.86865,31.188959 -3.69181,21.38409 -12.18679,53.29624 -30.82422,66.66016 -2.9248,3.95973 -2.05652,8.20268 -1.83984,12.96875 0.33308,13.96062 -1.84118,26.87966 -4.9375,40.4375 7.44646,1.37521 13.924,2.924 19,8 0.25,2.5 0.25,2.5 0,5 -2,2 -2,2 -5.09766,2.3125 -4.96868,-0.39789 -7.33981,-1.25133 -19.90234,-6.3125 -1.63403,12.14494 -11.51089,16.49681 -11,21 5.46253,4.39928 8.42115,5.42115 11,8 0.44166,3.26827 0.25921,4.62115 -1.625,7.375 -2.375,1.625 -2.375,1.625 -5.1875,1.48047 -4.05717,-0.96213 -6.63805,-3.17324 -13.1875,-8.85547 -5.40558,4.92508 -7.17557,6.38398 -18,13 3.05508,7.50676 10.09022,10.18045 13,16 18.65759,-4.59769 30.45749,-6.57777 43,1 16.93089,12.52748 19.64212,30.48455 20,38 0.8868,16.34938 -2.0015,39.85397 -20.58984,59.68359 -20.54927,19.74995 -50.20332,11.92988 -77.15096,12.75841 -5.90346,0.1948 -38.167621,21.12289 -58.8217,4.8705 -2.4375,-2.3125 -2.4375,-2.3125 -3.4375,-4.3125 -13.838345,8.75078 -27.200459,14.61944 -44.0625,12.25 -7.586327,-1.68454 -12.590383,-4.59733 -17.9375,-10.25 -2.9854446,-1.32276 -2.9854446,-1.32276 -5.9375,-0.0625 -6.57528089,2.01995 -14.1640494,2.31748 -20.5,-0.5625 -3.615885,-2.18916 -6.803124,-4.4385 -8.5625,-8.375 -1.671563,-7.68153 0.646811,-14.56918 3,-21.8125 7.418493,-22.91628 1.224424,-51.76386 -9.429687,-73.04297 -5.103613,-10.22164 -4.435398,-18.11177 -0.859375,-28.83984 2.06434,-5.29222 4.58983,-10.31111 7.289062,-15.30469 -34.30456,-14.68096 -46.306934,-56.18378 -48,-63 -7.476714,-2.1115 -21.881673,3.09256 -28,-2.99998 -0.3125,-2.5 -0.3125,-2.5 0,-5 7.702767,-5.13518 17.112119,-4.22757 26,-4 0.214007,-7.33293 -0.941988,-14.83723 0.999965,-22 -7.915073,-0.16503 -15.185931,-0.24198 -21,-6 0.329715,-3.29715 0.622684,-4.62268 3,-7 6.813609,-0.12579 13.480209,1.11929 20,3 0.959248,-15.66771 10.267241,-38.48987 22.671875,-51.792969 1.971787,-3.276646 1.729381,-6.552379 1.765625,-10.269531 0.82234,-24.544831 9.262116,-77.624089 29.320348,-89.0039262 C -10.047886,-3.6299963 -5.7985985,-2.2417262 0,0 Z m -29.8125,100.9375 c -18.312058,17.30909 -27.685408,41.58861 -27,53 4.725155,2.78118 12.55016,3.92178 15.003906,9.17187 -0.0039,1.82813 -0.0039,1.82813 -1.003906,2.82813 -5.929859,0.37062 -9.894783,-0.64329 -16,-2 v 19 c 6.660056,1.36221 13.528921,1.84492 20,4 -0.375,2.4375 -0.375,2.4375 -1,5 -5.383443,1.98154 -11.319654,1.67437 -17,2 2.077005,22.06819 24.806278,47.08909 49,58 -0.1096219,5.04261 -1.262918,7.65397 -4.3125,11.6875 -6.662483,9.07523 -9.180137,19.11019 -7.6875,30.3125 13.5682849,27.72137 22.7903699,56.50329 10,87 -2.026151,4.45078 -2.272898,7.18117 -1,12 3.2984162,3.03455 12.3074166,3.70339 18.5195312,-1.19922 3.5725918,-4.34554 2.8556558,-9.70179 7.8554688,-19.92578 5.398374,-11.44856 9.002066,-23.67694 10.105469,-36.28516 0.519531,-2.58984 0.519531,-2.58984 3.519531,-4.58984 3.1875,-0.125 3.1875,-0.125 6,0 1.900567,39.9119 -25.6107823,59.98986 -11,70 5.250204,-0.0972 12,-7 12,-7 l 4,-1 c -0.249665,3.43542 -0.46319,6.85589 1,10.0625 9.807506,4.59728 27.928907,-9.47745 34.195801,-22.84473 1.462428,-4.033 1.851125,-8.16032 2.304199,-12.40527 2.823641,-22.40506 2.823641,-22.40506 10.5,-30.8125 4.869229,-3.43059 9.270894,-3.34375 15,-3 v 5 c -14.57318,3.75231 -15.806761,22.06412 -16,35 4.727777,-1.20071 9.573321,-2.27348 16,-2 v 4 c -11.349667,4.55589 -22.146968,6.50862 -17.999999,21 6.451649,9.11489 15.454889,6.90036 25.343749,4.50779 7.7439,-1.73465 17.15744,-10.88081 25.06604,-10.88953 24.37185,-0.0841 49.2159,7.55388 67.48865,-10.49328 9.09976,-9.85477 13.11382,-20.47144 16.85547,-31.30859 3.50715,-11.7968 1.11881,-25.69152 -4.10938,-36.66016 -3.27144,-5.26237 -7.52121,-9.8654 -13.60742,-11.77075 -7.28063,-0.43746 -16.43948,-2.42556 -23.03711,1.61451 7.18344,17.99216 10.60808,36.33882 3.61328,55.07422 -2.78868,5.8923 -11.72788,23.24291 -31.41118,20.93918 l -4.159,-0.9569 -2.2021,-2.841 5.36621,-2.65647 c 11.84114,-4.0129 17.15502,-11.38147 22.90216,-22.75434 3.78809,-11.92914 0.94809,-25.73982 -4.10937,-36.80469 -5.63685,-11.50662 -15.73167,-19.28502 -24.89844,-27.75391 -2.05324,-1.4888 -2.05324,-1.4888 -4.58984,-1.05859 -12.32062,2.90073 -30.10844,8.68069 -45.65732,3.1899 -0.400338,-1.98767 -2.594699,-2.36651 -2.854399,-4.3774 36.263649,-2.95212 51.540359,-7.45425 72.999999,-27 v -2 c -1.73162,-1.27836 -2.23081,-1.58821 -10,-6 l 1,-5 c 6.67904,0.5063 13.42001,5.771 20,3 3.80363,-4.06429 9,-10.2513 9,-16 -5.32176,-1.62595 -11.04423,-2.36625 -16,-5 -1.50781,-3.17969 -1.50781,-3.17969 -2,-6 7.75494,-0.0993 15.31069,-0.0606 23,1 5.88552,-13.70416 6.44781,-28.70348 5.53784,-43.37085 -0.20803,-5.46615 -0.0491,-8.74164 3.66528,-12.92993 13.88048,-13.63001 29.91241,-43.0953 28.79688,-75.69922 -10.86034,-6.141153 -49.55869,-5.286169 -81,9.00001 -25.07395,-27.989494 -69.706691,-34.263882 -106,-34 -0.512415,-1.934444 -20.54778,-44.286626 -49.375,-49.625 -8.393232,1.998389 -25.938508,42.98479 -20.625,88.625 z"
     fill="#2c1d0b"
     transform="translate(184.8125,42.0625)"
     id="path4"
     sodipodi:nodetypes="cccccccccccccccccccccccccccccccccccccccccccccccccccccccccccccccccccccccccccccccccccccccccccccccccccccccccccccccc"
     style="display:inline"
     inkscape:label="黒の輪郭" />
  <g
     inkscape:groupmode="layer"
     id="layer2"
     inkscape:label="目">
    <path
       d="M 0,0 C 5.7531765,3.7998717 10.375562,9.0024735 11.9375,15.875 13.129774,27.681418 11.113978,37.875805 3.5898438,47.21875 0.62205455,50.284951 -3.3088409,51.99817 -7.0625,53.875 c -21.100225,1.792831 -24.9664,-11.489971 -25.375,-19.6875 0.188424,-8.428814 3.555739,-15.347757 9.375,-21.3125 2.3125,-1.875 2.3125,-1.875 4,-3 -10.041119,4.303337 -15.856949,10.318674 -20.035156,20.433594 -1.065705,2.834689 -2.101606,5.662787 -2.964844,8.566406 l -3,-1 C -47.280474,31.221077 -46.169596,25.206367 -43.636719,18.816406 -38.910187,9.984947 -31.424342,2.827277 -22.242187,-1.1914062 -14.746306,-3.3922853 -7.0642809,-3.6025486 0,0 Z"
       fill="#1d293c"
       transform="translate(203.0625,185.125)"
       id="path7"
       style="display:inline"
       inkscape:label="右目"
       sodipodi:nodetypes="ccccccccccccc" />
    <path
       d="m 0,0 c 7.5814896,5.5260635 13.193195,11.555337 15,21 0.615845,9.146809 0.939164,17.889199 -4,26 -1.6367187,1.761719 -1.6367187,1.761719 -3,3 L 5,49 5.21875,47.199219 C 5.2124681,38.980321 8.1851109,30.251162 6.0343135,22.232233 5.4750228,19.656392 3.0916924,16.904702 0.19701983,15.049669 c 0,1.627135 0.88282407,6.365478 0.98758277,7.989238 -0.025948,8.147779 -1.93078978,15.605802 -7.5400713,21.527499 -5.5193323,4.81139 -11.1910893,6.823757 -18.4882813,6.714844 -5.163024,-0.673438 -7.378087,-2.547848 -10.913201,-6.26425 -4.175461,-5.029126 -4.161232,-15.648655 -2.439209,-22.450225 0.101143,-1.19667 -0.880182,-0.478159 -0.76074,-1.522224 C -42.514726,24.424148 -42.707097,29.488273 -44,34 h -3 c -1.904078,-3.808156 -0.854569,-7.959727 0,-12 3.484758,-9.95092 9.359335,-17.0856146 18.445313,-22.44140625 C -19.738827,-4.5091748 -8.6129902,-4.7665585 0,0 Z"
       fill="#1f2b3c"
       transform="translate(320,224)"
       id="path6"
       style="display:inline"
       inkscape:label="左目"
       sodipodi:nodetypes="ccccccccccccccccccc" />
    <path
       d="M 0,0 C 2.4375,2.0625 2.4375,2.0625 4,5 4,8.9015778 3.5830791,11.147808 1.375,14.375 -1.8344076,16.57091 -4.1240699,17 -8,17 -10.4375,15.5 -10.4375,15.5 -12,13 -12.619845,8.7385657 -12.49312,6.7561168 -10.125,3.125 -6.8278565,-0.17214348 -4.6271713,-0.55526056 0,0 Z"
       fill="#f6f7f6"
       transform="translate(202,201)"
       id="path28"
       style="display:inline"
       inkscape:label="白い瞳" />
    <path
       d="M0 0 C2.0625 1.5625 2.0625 1.5625 3 4 C3.51042042 8.01044618 3.34447773 10.29606724 1.5625 13.9375 C-1.71103417 16.5722958 -3.82420251 16.67400263 -7.9375 16.41015625 C-10 16 -10 16 -12.0625 14.5 C-13.40778594 10.91257082 -13.66579467 7.77799766 -13 4 C-10.10077809 -1.04212506 -5.27088401 -0.96832528 0 0 Z "
       fill="#F9FAF9"
       transform="translate(310,236)"
       id="path27"
       inkscape:label="白い瞳" />
  </g>
  <g
     inkscape:groupmode="layer"
     id="layer1"
     inkscape:label="鼻">
    <path
       d="M0 0 C1.07894531 0.04640625 2.15789062 0.0928125 3.26953125 0.140625 C4.35621094 0.17671875 5.44289062 0.2128125 6.5625 0.25 C7.39394531 0.29640625 8.22539062 0.3428125 9.08203125 0.390625 C9.74203125 1.710625 10.40203125 3.030625 11.08203125 4.390625 C12.17515625 4.16375 13.26828125 3.936875 14.39453125 3.703125 C18.08203125 3.390625 18.08203125 3.390625 20.01953125 4.453125 C21.598579 7.33256502 21.52771955 9.14346741 21.08203125 12.390625 C17.92413651 17.96957237 17.92413651 17.96957237 15.08203125 19.390625 C9.40248357 19.82987059 4.3954369 19.62784843 -0.91796875 17.390625 C-0.91796875 16.730625 -0.91796875 16.070625 -0.91796875 15.390625 C-1.84609375 15.2359375 -1.84609375 15.2359375 -2.79296875 15.078125 C-4.91796875 14.390625 -4.91796875 14.390625 -6.91796875 11.390625 C-6.61955658 5.91973531 -6.1447482 0.82259012 0 0 Z "
       fill="#DF946A"
       transform="translate(226.91797,249.60937)"
       id="path22"
       inkscape:label="鼻" />
    <path
       d="M0 0 C2.64 0 5.28 0 8 0 C7.38125 0.2475 6.7625 0.495 6.125 0.75 C3.64931313 2.20628639 3.04874998 3.37812506 2 6 C0 2.25 0 2.25 0 0 Z "
       fill="#F4E8D5"
       transform="translate(232,269)"
       id="path99" />
    <path
       d="M0 0 C1.79068573 2.6860286 2.66055791 4.6626589 3.625 7.6875 C3.88539063 8.49574219 4.14578125 9.30398438 4.4140625 10.13671875 C4.60742188 10.75160156 4.80078125 11.36648438 5 12 C3.02 11.34 1.04 10.68 -1 10 C-1.02689216 8.52093108 -1.04634621 7.04172517 -1.0625 5.5625 C-1.07410156 4.73878906 -1.08570313 3.91507812 -1.09765625 3.06640625 C-1 1 -1 1 0 0 Z "
       fill="#C98057"
       transform="translate(223,254)"
       id="path71" />
    <path
       d="M0 0 C1.875 0.125 1.875 0.125 4 1 C5.375 3.8125 5.375 3.8125 6 7 C5.125 9.375 5.125 9.375 4 11 C3.34 11 2.68 11 2 11 C2.66 9.02 3.32 7.04 4 5 C2.68 4.67 1.36 4.34 0 4 C0 2.68 0 1.36 0 0 Z "
       fill="#D1855C"
       transform="translate(242,255)"
       id="path72"
       inkscape:label="鼻模様" />
    <path
       d="M0 0 C1.91831905 0.09637488 3.83614764 0.2125031 5.75 0.375 C6.41 1.695 7.07 3.015 7.75 4.375 C8.843125 4.148125 9.93625 3.92125 11.0625 3.6875 C14.75 3.375 14.75 3.375 16.6875 4.5 C18.05361625 6.91079338 17.97111261 8.64794446 17.75 11.375 C17.2859375 10.4159375 17.2859375 10.4159375 16.8125 9.4375 C15.9154837 7.43889179 15.9154837 7.43889179 14.75 6.375 C7.41701937 6.06295827 -0.09824813 6.7062579 -7.25 8.375 C-7.25 10.025 -7.25 11.675 -7.25 13.375 C-7.91 13.375 -8.57 13.375 -9.25 13.375 C-10.2228674 9.32138585 -10.4356686 6.91246175 -9.0625 2.9375 C-5.66445252 -0.15849881 -4.4765192 0.00528515 0 0 Z "
       fill="#C2734A"
       transform="translate(230.25,249.625)"
       id="path31" />
    <path
       d="M0 0 C0.99 0.33 1.98 0.66 3 1 C3.6875 3.0625 3.6875 3.0625 4 5 C2.02 5.99 2.02 5.99 0 7 C0 8.65 0 10.3 0 12 C-0.66 12 -1.32 12 -2 12 C-3.35384615 5.72307692 -3.35384615 5.72307692 -1.5625 2.0625 C-1.046875 1.381875 -0.53125 0.70125 0 0 Z "
       fill="#B66C42"
       transform="translate(223,251)"
       id="path66" />
  </g>
</svg>
