<?xml version="1.0" encoding="UTF-8"?>
<svg version="1.1" xmlns="http://www.w3.org/2000/svg" width="272" height="271">
<path d="M0 0 C89.76 0 179.52 0 272 0 C272 89.43 272 178.86 272 271 C182.24 271 92.48 271 0 271 C0 181.57 0 92.14 0 0 Z " fill="#FDFDFD" transform="translate(0,0)"/>
<path d="M0 0 C6.67551649 5.35706729 11.54636267 12.17763816 13.62890625 20.5078125 C15.33234695 40.94910087 5.17516919 57.99523534 -7.42578125 73.30859375 C-18.32212257 85.89334578 -32.1313353 96.14205772 -49.08203125 97.796875 C-60.37844074 98.30668921 -69.41155866 94.68756663 -78.02734375 87.4453125 C-86.46670101 79.63575802 -93.13700751 70.71604802 -94.39453125 58.94921875 C-94.89365895 44.80086828 -88.37813259 32.19438335 -78.91015625 21.95703125 C-59.70983447 1.90889617 -26.97488165 -18.20123327 0 0 Z " fill="#0241C9" transform="translate(192.12109375,16.4921875)"/>
<path d="M0 0 C1.04704102 0.53065063 1.04704102 0.53065063 2.11523438 1.07202148 C7.61535228 3.93272235 12.39133814 7.22759732 17.0625 11.3125 C18.01769531 12.055 18.01769531 12.055 18.9921875 12.8125 C29.70441127 21.4166958 41.81963561 36.39127274 44.0625 50.3125 C44.94178048 64.17918554 43.66389477 74.03115785 34.3984375 84.984375 C25.68793233 93.66574805 15.7932091 97.55240954 3.6875 97.75 C-11.73021424 97.59979495 -23.26113248 89.96372427 -34.1875 79.5625 C-47.66621721 65.40547072 -58.41970753 45.98896286 -58.15234375 25.99609375 C-57.34621377 15.92679741 -52.89059305 7.88936948 -45.6875 1 C-32.67756217 -9.83806605 -14.2330957 -7.2745005 0 0 Z " fill="#039A36" transform="translate(69.9375,73.6875)"/>
<path d="M0 0 C15.89175019 10.77795467 29.47846152 28.03096693 33.5625 47.0625 C34.54524646 59.16396526 35.21651819 71.47152105 28.5625 82.0625 C28.2015625 82.66707031 27.840625 83.27164063 27.46875 83.89453125 C23.4491847 89.56498944 16.50507178 92.84105511 10.25 95.4375 C-5.73303614 98.14648918 -18.23616733 92.86338845 -31.4375 84.0625 C-43.55897636 75.24373689 -55.38911052 64.42947296 -62.4375 51.0625 C-63.19353516 49.71671875 -63.19353516 49.71671875 -63.96484375 48.34375 C-67.02218732 42.17824829 -67.91166966 36.60141705 -68 29.8125 C-68.01474365 29.06798584 -68.0294873 28.32347168 -68.04467773 27.55639648 C-67.8711699 18.20671368 -63.08044179 12.01829746 -56.859375 5.390625 C-53.33525272 2.00292036 -49.71756251 -0.59226027 -45.4375 -2.9375 C-44.7259375 -3.35 -44.014375 -3.7625 -43.28125 -4.1875 C-29.55420542 -10.95700144 -12.63012171 -7.29498409 0 0 Z " fill="#E91D18" transform="translate(225.4375,109.9375)"/>
<path d="M0 0 C9.09011417 6.85745455 14.87317887 16.1195366 18.44921875 26.84765625 C19.51566731 43.36520841 14.48792377 54.7527131 3.7890625 67.28515625 C-8.64540698 80.90287241 -26.43424855 92.26793561 -45.26953125 93.18359375 C-61.70122424 93.49142372 -61.70122424 93.49142372 -68.55078125 88.84765625 C-69.24171875 88.43515625 -69.93265625 88.02265625 -70.64453125 87.59765625 C-76.78220796 83.56694319 -81.26140528 77.61991976 -83.19140625 70.4765625 C-85.55271067 53.20310736 -80.68615786 39.45656444 -70.8125 25.3671875 C-53.49606703 2.63705172 -28.26389087 -18.05871834 0 0 Z " fill="#FDC505" transform="translate(155.55078125,166.15234375)"/>
</svg>
