<?xml version="1.0" encoding="UTF-8" standalone="no"?>
<svg
   version="1.1"
   width="1254"
   height="1254"
   id="svg113"
   sodipodi:docname="slide-page-favicon.svg"
   inkscape:version="1.4.2 (f4327f4, 2025-05-13)"
   xmlns:inkscape="http://www.inkscape.org/namespaces/inkscape"
   xmlns:sodipodi="http://sodipodi.sourceforge.net/DTD/sodipodi-0.dtd"
   xmlns="http://www.w3.org/2000/svg"
   xmlns:svg="http://www.w3.org/2000/svg">
  <defs
     id="defs113" />
  <sodipodi:namedview
     id="namedview113"
     pagecolor="#ffffff"
     bordercolor="#000000"
     borderopacity="0.25"
     inkscape:showpageshadow="2"
     inkscape:pageopacity="0.0"
     inkscape:pagecheckerboard="0"
     inkscape:deskcolor="#d1d1d1"
     inkscape:zoom="0.30103668"
     inkscape:cx="446.7894"
     inkscape:cy="941.74569"
     inkscape:window-width="1920"
     inkscape:window-height="984"
     inkscape:window-x="1911"
     inkscape:window-y="-9"
     inkscape:window-maximized="1"
     inkscape:current-layer="svg113" />
  <rect
     style="opacity:0.996169;fill:#ffffff;fill-opacity:1;stroke:none;stroke-width:11.9432;stroke-linecap:square;stroke-dasharray:none;stroke-opacity:1"
     id="rect1"
     width="1345.1072"
     height="1305.594"
     x="-35.726116"
     y="-6.9257483"
     ry="166.04668" />
  <path
     d="m 1225.7756,371.70565 c 9.2892,9.01188 14.1855,19.17405 14.7312,32.1107 0.7904,48.5048 -21.3059,347.57865 -26.7603,461.66346 -0.9839,18.24726 -3.1587,34.86044 -16.4102,48.43491 -3.134,2.64967 -6.7548,4.5836 -10.2745,6.65404 -12.4262,6.49705 -27.604,3.8549 -41.1753,2.90673 -21.264,-1.47982 -24.6057,-1.86911 -85.9659,-9.56077 -2.3781,-226.06624 13.8273,-539.52571 27.2239,-547.07048 2.3892,-0.1894 4.7851,-0.29479 7.1807,-0.36454 34.9658,0.26822 102.9724,-14.63789 131.4504,5.22595 z"
     fill="#c8bbef"
     id="path6"
     sodipodi:nodetypes="cccccccccc"
     style="stroke-width:1.29638" />
  <path
     d="m 888.79904,325.36023 c 62.2251,-5.96851 153.40116,-22.20925 181.49256,-1.29638 13.4623,11.03903 17.1317,26.57051 16.8529,42.78039 l -27.2235,547.07048 -1.1439,3.03845 c -4.1673,9.90418 -13.8155,18.4237 -23.4872,22.88906 -46.78584,6.1548 -108.76933,-5.41224 -155.56512,-10.37099 z"
     fill="#a7e6e0"
     id="path3"
     sodipodi:nodetypes="cccccccc"
     style="display:inline;stroke-width:1.29638" />
  <rect
     style="opacity:0.996169;fill:#ffffff;fill-opacity:1;stroke:#dfe1e3;stroke-width:5.37388;stroke-linecap:square;stroke-dasharray:none;stroke-opacity:1"
     id="rect113"
     width="504.99408"
     height="704.07648"
     x="379.83936"
     y="262.47699"
     ry="64.216759" />
  <path
     d="m 78.726367,362.46898 c 21.038177,0.18109 99.354703,2.77476 102.251613,5.67165 0.1944,1.95726 0.30242,3.92308 0.3758,5.88852 10.27472,179.70992 5.46353,360.99897 24.25534,539.88557 l -3.12636,0.31593 C 171.51227,916.36202 96.444452,933.44851 72.082435,916.50747 60.540741,906.07969 55.334299,894.67859 54.343358,879.26209 44.680624,720.19641 32.715509,561.27945 26.373607,402.03072 c -0.04316,-11.24048 3.244056,-18.27253 10.86367,-26.48144 13.060794,-12.47231 24.307397,-13.36965 41.48909,-13.0803 z"
     fill="#a8cbf0"
     id="path7"
     sodipodi:nodetypes="cccccccccc"
     style="stroke-width:1.29638" />
  <path
     d="m 379.10366,329.93578 c 0.009,188.0144 0.16312,371.4501 -0.6312,559.46423 -0.23105,38.84614 11.64856,31.64076 4.3254,39.09077 -4.56182,0.48264 -9.12263,0.97461 -13.68346,1.46659 -39.46698,6.50833 -78.23147,7.47491 -104.66967,11.8656 -14.68637,2.90776 -28.93279,1.36949 -41.4815,-6.77124 -11.29681,-8.26762 -17.16478,-17.85925 -19.94694,-31.50801 -14.16169,-246.23513 -23.41052,-533.24853 -23.49331,-542.03549 -4.01353,-15.45538 15.05443,-40.20565 35.28459,-34.97841 z"
     fill="#fcd796"
     id="path4"
     sodipodi:nodetypes="cccccccccc"
     style="stroke-width:1.29638" />
  <path
     d="m 0,0 c 66,0 132,0 200,0 0,0.66 0,1.32 0,2 -1.53141,0.2030273 -1.53141,0.2030273 -3.09375,0.4101563 C 183.5454,4.3329181 170.86346,7.9721846 158,12 c -0.80824,0.251045 -1.61648,0.50209 -2.44922,0.760742 C 149.35282,14.699634 143.55926,16.570187 138,20 c -2.03052,0.961401 -4.07316,1.897489 -6.125,2.8125 -5.37911,2.438936 -10.52212,5.128712 -15.63281,8.085937 C 114,32 114,32 111,32 c 0,0.66 0,1.32 0,2 -2.01843,1.356599 -4.02415,2.596559 -6.125,3.8125 C 100.23191,40.573241 96.063034,43.444845 92,47 c -0.766992,0.442148 -1.533984,0.884297 -2.324219,1.339844 -3.005859,1.864949 -5.401436,3.999262 -7.988281,6.410156 -3.109692,2.886942 -6.23381,5.727407 -9.5,8.4375 C 55.418069,77.741422 55.418069,77.741422 44,96 c -0.66,0 -1.32,0 -2,0 -0.495,1.485 -0.495,1.485 -1,3 -0.66,0 -1.32,0 -2,0 -0.181758,0.86625 -0.181758,0.86625 -0.367188,1.75 C 37.482866,104.8387 35.11202,108.34024 33,112 c -0.599414,1.07379 -1.198828,2.14758 -1.816406,3.25391 -0.617461,1.09183 -1.234922,2.18367 -1.871094,3.30859 -0.581367,1.03254 -1.162734,2.06508 -1.761719,3.12891 C 27.039023,122.45324 26.527266,123.21508 26,124 c -0.66,0 -1.32,0 -2,0 -0.105703,0.6948 -0.211406,1.38961 -0.320313,2.10547 -0.784617,3.34139 -2.066303,6.11549 -3.554687,9.20703 -2.316299,4.82465 -4.318989,9.65673 -6.125,14.6875 -0.242021,0.67039 -0.484043,1.34079 -0.733398,2.03149 -3.328943,9.35015 -6.0757258,18.66409 -8.0612797,28.3938 C 4.0841286,185.91587 4.0841286,185.91587 3,187 c -0.2336388,1.84892 -0.4130363,3.70488 -0.5625,5.5625 -0.083789,1.01191 -0.1675781,2.02383 -0.2539062,3.06641 C 2.1230078,196.41137 2.0624219,197.19383 2,198 1.34,198 0.68,198 0,198 0,132.66 0,67.32 0,0 Z"
     fill="#010101"
     id="path8"
     style="display:none" />
  <path
     d="m 0,0 c 0.66,0 1.32,0 2,0 0,3.3 0,6.6 0,10 0.66,0 1.32,0 2,0 0.1005469,0.806953 0.2010937,1.613906 0.3046875,2.445313 3.8004986,24.521025 13.2431515,51.115226 27.3666995,71.579345 1.52063,2.260828 2.803619,4.630013 4.125488,7.010498 C 39.008783,96.280577 42.644789,101.64479 47,106 c 0,0.99 0,1.98 0,3 0.66,0 1.32,0 2,0 2.168877,1.88902 3.783682,3.6016 5.160156,6.13672 2.642388,4.11225 5.969588,7.46396 9.339844,10.98828 0.676758,0.71543 1.353516,1.43086 2.050781,2.16797 C 67.360182,130.2023 69.173108,132.1074 71,134 c 0.527871,0.55285 1.055742,1.10569 1.599609,1.67529 1.353018,1.43101 1.353018,1.43101 3.275391,2.13721 C 78,139 78,139 80.4375,141.9375 82.926737,144.91244 84.69848,146.11342 88,148 c 1.692846,1.42834 3.333932,2.89957 4.960937,4.40234 2.263165,1.77325 4.670607,3.13761 7.179203,4.53345 3.00139,1.71739 5.85288,3.65572 8.73486,5.56421 5.2045,3.40498 10.32332,6.19933 16.125,8.5 0,0.66 0,1.32 0,2 0.66,0.0825 1.32,0.165 2,0.25 3.16065,0.79016 5.77848,2.09458 8.66162,3.58545 8.71398,4.3397 17.85322,7.4705 27.15088,10.28955 1.13494,0.34619 2.26988,0.69239 3.43921,1.04907 11.12295,3.33395 22.15979,5.80939 33.74829,6.82593 0,0.66 0,1.32 0,2 -66,0 -132,0 -200,0 C 0,131.99 0,66.98 0,0 Z"
     fill="#010101"
     transform="translate(0,1057)"
     id="path9"
     style="display:none" />
  <path
     d="m 0,0 c 66,0 132,0 200,0 0,65.34 0,130.68 0,198 -0.66,0 -1.32,0 -2,0 -0.0606,-0.78246 -0.12117,-1.56492 -0.18359,-2.37109 -0.0838,-1.01192 -0.16758,-2.02383 -0.25391,-3.06641 -0.0812,-1.00934 -0.16242,-2.01867 -0.24609,-3.05859 -0.0485,-2.44032 -0.0485,-2.44032 -1.31641,-3.50391 -0.49601,-2.45614 -0.94798,-4.90678 -1.375,-7.375 -1.72003,-9.52371 -4.02844,-18.61848 -7.625,-27.625 -0.40992,-1.07766 -0.81984,-2.15531 -1.24219,-3.26563 C 181.43807,136.49494 176.55338,125.32388 170,115.1875 168,112 168,112 168,109 c -0.66,0 -1.32,0 -2,0 -3.5475,-4.06265 -8,-9.556854 -8,-15 -0.59813,-0.226875 -1.19625,-0.45375 -1.8125,-0.6875 C 154,92 154,92 152.64844,89.746094 150.84637,86.744077 148.79038,84.33933 146.4375,81.75 145.65246,80.878594 144.86742,80.007187 144.05859,79.109375 142.17908,76.952974 142.17908,76.952974 140,76 c -0.44988,-0.755391 -0.89977,-1.510781 -1.36328,-2.289063 -4.04363,-6.697566 -10.6945,-11.90335 -16.60156,-16.953125 -1.45026,-1.252618 -2.87776,-2.53178 -4.28907,-3.828125 C 113.34246,48.89116 109.23027,45.852875 104,43 102.82031,42.12139 101.65463,41.223791 100.5,40.3125 88.728085,31.35414 75.427492,25.040653 62,19 60.964883,18.528203 59.929766,18.056406 58.863281,17.570312 40.328342,9.4794544 20.256456,3.3282922 0,2 0,1.34 0,0.68 0,0 Z"
     fill="#010101"
     transform="translate(1054)"
     id="path10"
     style="display:none" />
  <path
     d="m 0,0 c 0.66,0 1.32,0 2,0 0,65.34 0,130.68 0,198 -65.67,0 -131.34,0 -199,0 0,-0.66 0,-1.32 0,-2 1.18852,-0.14695 2.37703,-0.29391 3.60156,-0.44531 18.48204,-2.43721 35.83867,-7.32411 53.25537,-13.92652 0.86319,-0.32718 1.72638,-0.65436 2.61573,-0.99145 0.75547,-0.29173 1.51094,-0.58346 2.2893,-0.88403 2.39233,-0.80458 4.75588,-1.30743 7.23804,-1.75269 0,-0.66 0,-1.32 0,-2 1.01578,-0.49629 2.03156,-0.99258 3.07812,-1.50391 22.37453,-10.63893 22.37453,-10.63893 41.431401,-26.14941 C -82,147 -82,147 -79,147 c 0.266997,-0.59821 0.533994,-1.19641 0.809082,-1.81274 1.215342,-2.23212 2.360647,-3.50282 4.245606,-5.18335 0.609484,-0.55285 1.218969,-1.1057 1.846923,-1.6753 0.976828,-0.87422 0.976828,-0.87422 1.973389,-1.76611 5.808851,-5.28537 11.25765,-10.75097 16.442871,-16.65015 C -52.49149,118.57461 -51.250253,117.2822 -50,116 c 0.66,0 1.32,0 2,0 0.103125,-0.59812 0.20625,-1.19625 0.3125,-1.8125 0.786619,-2.50288 1.822958,-3.40065 3.6875,-5.1875 0.33,-0.99 0.66,-1.98 1,-3 0.974624,-1.02475 1.978242,-2.02224 3,-3 1.065362,-1.31448 2.10653,-2.64886 3.125,-4 0.518203,-0.680625 1.036406,-1.36125 1.570313,-2.0625 C -33.828726,94.932159 -33.828726,94.932159 -33,92 c 0.66,0 1.32,0 2,0 0.33,-1.32 0.66,-2.64 1,-4 0.66,0 1.32,0 2,0 0.08508,-0.67418 0.170156,-1.348359 0.257813,-2.042969 0.946494,-3.771034 2.726935,-6.908802 4.617187,-10.269531 2.433577,-4.446338 4.786904,-8.769229 6.410156,-13.585938 1.016591,-2.988664 2.189455,-5.912041 3.339844,-8.851562 1.327102,-3.394164 2.596425,-6.685858 3.375,-10.25 0.66,0 1.32,0 2,0 0.12375,-1.153711 0.2475,-2.307422 0.375,-3.496094 C -7.0877756,35.207057 -6.1183545,31.115121 -5,26.9375 -3.6761638,21.963521 -2.6381007,17.111452 -2,12 c 0.66,0 1.32,0 2,0 C 0,8.04 0,4.08 0,0 Z"
     fill="#010101"
     transform="translate(1252,1056)"
     id="path11"
     style="display:none" />
  <ellipse
     style="opacity:0.996169;fill:#cacdd0;fill-opacity:1;stroke:none;stroke-width:4.44934;stroke-linecap:square;stroke-dasharray:none;stroke-opacity:1"
     id="path113"
     cx="331.7179"
     cy="1084.1455"
     rx="34.848946"
     ry="34.803188" />
  <ellipse
     style="opacity:0.996169;fill:#cacdd0;fill-opacity:1;stroke:none;stroke-width:4.51815;stroke-linecap:square;stroke-dasharray:none;stroke-opacity:1"
     id="ellipse113"
     cx="484.05646"
     cy="1084.684"
     rx="35.387951"
     ry="35.341484" />
  <ellipse
     style="opacity:0.996169;fill:#cacdd0;fill-opacity:1;stroke:none;stroke-width:4.38052;stroke-linecap:square;stroke-dasharray:none;stroke-opacity:1"
     id="ellipse114"
     cx="790.88385"
     cy="1085.7607"
     rx="34.309944"
     ry="34.264893" />
  <ellipse
     style="opacity:0.996169;fill:#cacdd0;fill-opacity:1;stroke:none;stroke-width:4.38016;stroke-linecap:square;stroke-dasharray:none;stroke-opacity:1"
     id="ellipse115"
     cx="943.75726"
     cy="1084.6868"
     rx="34.30711"
     ry="34.262066" />
  <ellipse
     style="opacity:0.996169;fill:#f5904d;fill-opacity:1;stroke:none;stroke-width:4.51815;stroke-linecap:square;stroke-dasharray:none;stroke-opacity:1"
     id="ellipse122"
     cx="640.16241"
     cy="1085.7607"
     rx="35.387951"
     ry="35.341484" />
  <rect
     style="opacity:0.996169;fill:#e3e4e6;fill-opacity:1;stroke:none;stroke-width:3.42373;stroke-linecap:square;stroke-dasharray:none;stroke-opacity:1"
     id="rect122"
     width="373.5777"
     height="34.450966"
     x="447.70078"
     y="817.0744"
     ry="17.225483" />
  <rect
     style="opacity:0.996169;fill:#e3e4e6;fill-opacity:1;stroke:none;stroke-width:3.42373;stroke-linecap:square;stroke-dasharray:none;stroke-opacity:1"
     id="rect123"
     width="373.5777"
     height="34.450966"
     x="448.23911"
     y="733.10022"
     ry="17.225483" />
  <rect
     style="display:inline;opacity:0.996169;fill:#f48e4b;fill-opacity:1;stroke:none;stroke-width:10.2057;stroke-linecap:square;stroke-dasharray:none;stroke-opacity:1"
     id="rect124"
     width="378.14526"
     height="302.41656"
     x="445.19403"
     y="369.97647"
     ry="28.055658" />
</svg>
