<svg viewBox="0 0 1e3 1058" xmlns="http://www.w3.org/2000/svg"><path transform="translate(497 4.1)" d="m470 625c-0.3 13-412 362-430 362-12-6-198-149-177-138l152-120 1-17h198c1 5 1 5 1 17l70 1v-340h-340c1.4 109-0.6 218 0.6 327-0.1 9.6-0.1 9.6-3.1 13-5.6 3.9-113 82-124 90l-252-167c-69-702 879-817 903-27zm-462-445v60h-79v65l78 1 1 61c22-1.1 45 1.8 67-1l1-61h83v61c16 2.6 53 1 68 4.4e-4v-61h72v-65h-72v-60h-68v60h-83l-1-60h-67zm-220 4.5c-20 15-24 19-44 38 2.7 5.9 47 55 47 62-17 26-46 40-74 50 4.5 22 12 44 19 66 31-16 60-34 88-54 6.6 19 12 39 15 59 0.7 7-3.1 11-7.2 16-2.2 2.5-59 64-115 96 2.3 5.8 26 60 31 62 27-11 98-78 99-79 0.1 32 16 168-59 159-15 0.3-20-5.2-33-5.2 6.9 20 5.4 55 13 73 38 0.3 84 3.3 113-26 41-49 37-136 37-195 0.1-46-3.9-145-37-205-3.6-11 51-70 48-79-17-14-35-26-53-38-11 16-26 37-38 53 0 0-47-55-50-54z" fill="#2c2460"/><path transform="translate(650 582)" d="m0 0h3.4c1.3 7.6e-5 2.6 1.5e-4 3.9 2.3e-4h4.2 4.3 11 12 23c1.1 3.2 1.1 5.4 1.1 8.7v3.6c-3e-3 1.9-3e-3 1.9-0 3.8 9.6e-4 1.3 0 2.6 0 3.9 0 2.8-6.7e-4 5.5-0 8.3v11 10c2e-3 1.3 4e-3 2.5 0 3.9v3.5c-8e-4 1-0 2.1-0 3.1-0.1 2.5-0.1 2.5-1.1 4.5h-65l-0.1-31v-9.9-7.7-2-5.9-3.4c0.2-3.4 0.3-3.5 3.7-3.6z" fill="#342c65"/><path transform="translate(521 582)" d="m0 0h3.8 4.1 4.2 8.9c3.8-0 7.6-0 11-0.1h8.7 4.2 5.9 3.4c0.9 0.1 1.7 0.2 2.6 0.4 2.5 3.7 2.2 5.6 2.2 10-4.6e-4 0.7-9.2e-4 1.4-0 2.2-3e-3 1.5-0 3-0 4.6v6.7c-0.1 14-0.7 27-1.2 41h-65l-0.1-31v-9.9-7.7-2-5.9-3.4c0.2-4.7 2.8-3.6 7-3.7z" fill="#332c64"/><path transform="translate(650 460)" d="m0 0h3.4c1.3 7.6e-5 2.6 1.5e-4 3.9 2.3e-4h4.2 4.3 11 12 23c0.9 3.7 1.1 7 1 11-0 1.1-0 2.3-0.1 3.4-0 1.2-0.1 2.4-0.1 3.6-0 1.1-0 2.2-0.1 3.3l-0.3 12c-0.3 14-0.3 14-0.6 28h-65l-0.1-30v-9.5-7.4-3.9l-3.7e-4 -3.7v-3.2c0.2-3.3 0.3-3.4 3.7-3.5z" fill="#2b235e"/><path transform="translate(521 460)" d="m0 0h3.8 4.2c1.4-6.7e-4 2.8-0 4.2-0 3-0 5.9 6.8e-4 8.9 0h11c2.9-0 5.8-0 8.7 1.3e-4 1.4 6.7e-4 2.8-1.6e-4 4.2-0h5.9c1.1 8e-4 2.2 0 3.4 0 2.5 0.1 2.5 0.1 3.5 1.1 0.1 1.9 0.1 3.7 0.1 5.6-1.1e-4 1.8-1.1e-4 1.8-2.3e-4 3.6v4 4 11 11 21c-8.2 0.2-16 0.3-24 0.4-3.8 0.1-7.6 0.1-11 0.2-3.7 0.1-7.3 0.1-11 0.2-1.4 0-2.8 0.1-4.2 0.1-2 0-3.9 0.1-5.9 0.1-1.1 0-2.2 0-3.4 0.1-2.6-0.1-2.6-0.1-4.6-1.1-0-7.8-0-16-0.1-23v-11-10-6c-7.5e-5 -1.2-1.5e-4 -2.4-2.3e-4 -3.6v-3.2c0.2-4.6 3-3.5 7-3.5z" fill="#322b63"/></svg>